Patient4_TMGait_0pt5_01_right_32_EMG.mot
version=1
nRows=37
nColumns=33
inDegrees=no
endheader
time	1LAddLong	2LGlutMax	3LGlutMed	4LIliopsoas	5LSemiMemb	6LBicFemLong	7LRecFem	8LVastMed	9LVastLat	10LGasMed	11LTibAnt	12lTibPost	13LPeroneusLong	14LSol	15LExtDigLong	16LFlexDigLong	17RAddLong	18RGlutMax	19RGlutMed	20RIliopsoas	21RSemiMemb	22RBicFemLong	23RRecFem	24RVastMed	25RVastLat	26RGasMed	27RTibAnt	28RTibPost	29RPeroneusLong	30RSol	31RExtDigLong	32RFlexDigLong
42.535	0.00412	0.55435	-0.22537	-0.012054	-0.000916	0.0354	0.020599	0.002899	0.041504	0.022736	-0.16617	0.006409	-0.10239	-0.15503	-0.30365	0.010986	0.064087	0.42602	-0.21622	0.001678	0.13214	-0.85525	0.15579	0.010071	0.007172	0.3038	-0.073547	-0.091705	-0.40649	-0.57022	0.008545	-0.009766
42.536	-0.001984	0.56686	-0.2153	0.000153	-0.001831	0.028839	0.043793	0.001984	0.041656	0.014801	0.005646	0.01236	-0.15915	-0.018463	-0.14862	0.52582	0.071564	0.41672	-0.41061	-0.008698	0.24811	-0.84732	0.15091	-0.11185	-0.028534	0.20081	0.010376	-0.12039	-0.75714	-0.5275	0.005493	-0.011292
42.537	0.006104	0.55008	-0.20126	0.025482	-0.001831	0.04425	-0.000305	0.012054	0.033112	0.011902	-0.001984	0.010834	-0.19333	-0.005646	-0.098572	1.0541	0.059814	0.24506	-0.05188	-0.030365	0.070496	-0.58411	0.011749	-0.21179	-0.069733	0.038452	0.028687	-0.16617	-1.1603	-0.25879	0.00061	-0.020294
42.538	-0.001526	0.5629	-0.2066	0.010376	0.003967	0.033569	-0.052643	0.018158	0.047607	-0.006409	0.045471	0.004578	-0.14465	-0.020142	0.017395	1.4569	0.067139	0.20294	0.37231	0.007019	-0.38086	-0.16495	-0.1268	-0.21698	-0.021973	-0.059967	0.02243	0.12024	-0.42694	0.007477	0.007324	-0.024719
42.539	0.000458	0.62912	-0.2063	0.01236	-0.00351	0.029144	-0.13718	0.015106	0.04837	-0.004272	0.059662	0.005493	-0.089569	-0.045319	-0.33295	1.7249	0.070648	0.27222	-0.49881	-0.018311	-0.5896	0.1384	-0.13931	-0.068207	0.030212	-0.068817	-0.027924	0	0.345	0.54642	0.011597	-0.021667
42.54	-0.001373	0.61523	-0.20645	-0.004578	0.005035	0.030823	-0.21316	0.013885	0.041656	0.01236	0.046387	0.006104	-0.068054	-0.11658	0.35538	1.8834	0.037537	0.30182	-0.2179	-0.11276	-0.49301	0.29129	-0.021667	0.005646	0.005798	-0.038452	-0.020142	-0.22156	0.8725	0.77728	0.002747	-0.006104
42.541	0.001831	0.58731	-0.21408	0.007782	0.000458	0.021515	-0.21622	0.011292	0.048676	0.050659	0.13382	0.01297	-0.12436	-0.11307	-0.044861	1.9722	-0.077667	0.23941	-0.24231	-0.12039	-0.20126	0.17761	-0.103	0.001373	-0.07782	0.022583	0.034943	-0.57083	1.1211	0.037537	0.006561	-0.022278
42.542	-0.006866	0.551	-0.21179	-0.000305	0.002136	0.023651	-0.094757	0.008392	0.04715	0.011902	0.1236	0.014954	-0.13825	0.038605	0.37094	1.9798	-0.14999	0.12009	0.037079	-0.035248	-0.19226	-0.00412	-0.18082	0.2005	-0.04776	0.027924	0.13062	0.6076	-0.62042	-0.44403	0.009613	-0.027161
42.543	0.000305	0.51117	-0.21912	-0.007935	-0.005646	0.029297	-0.022736	0.014191	0.0383	0.005646	-0.015411	0.014343	-0.086823	0.1088	0.011749	1.9608	-0.1152	0.16754	0.50491	0.092773	0.25055	-0.16541	-0.092926	0.23834	0.059357	0.024414	0.21301	0.52216	-1.0501	0.09552	0.001373	-0.025177
42.544	-0.000305	0.43518	-0.21973	-0.003357	-0.002289	0.003204	-0.014191	0.01297	0.029755	0.010376	-0.074921	0.010223	-0.059662	0.11063	0.10635	1.8684	-0.081024	0.023956	-0.48248	0.14496	0.31525	-0.27054	-0.036316	0.33112	0.15015	0.028687	0.041962	0.17471	-0.60684	0.30548	-0.005798	-0.014954
42.545	0.009613	0.35843	-0.18585	0.015411	0.000305	0.018921	-0.032196	0.020447	0.035095	-0.01236	0.030823	0.011902	-0.10986	0.12878	0.27329	1.7604	-0.028839	-0.087128	-0.84106	0.08728	0.11383	-0.48813	0.083618	0.15701	0.13031	0.022125	-0.28091	-0.35431	2.2069	0.15503	0.002899	-0.009766
42.546	-0.001526	0.28641	-0.20721	0.014343	0.000305	0.033264	-0.001221	0.013275	0.054016	0.005188	0.079651	0.007172	-0.13779	0.13199	0.1712	1.6248	-0.004425	-0.077362	-0.75775	0.011139	0.045776	-0.63019	0.1532	0.056	0.04303	0.02594	-0.34866	0.077972	3.0696	-0.097198	0.003052	0.003357
42.547	0.005646	0.17227	-0.23834	0.024567	-0.004425	0.022125	0.021515	0.021057	0.056152	-0.002594	0.098877	0.009003	-0.13519	0.019531	0.019836	1.4539	-0.007019	-0.06134	-0.44891	0.018311	0.25177	-0.079803	0.10117	0.11246	0.034637	0.027924	-0.27878	0.26337	0.681	-0.23651	0.007477	0
42.548	0.002136	0.039673	-0.21393	0.027618	0.005035	0.009155	0.063171	0.017395	0.054932	0.02594	-0.022736	0.006409	-0.11322	-0.14786	-0.16174	1.2553	-0.009155	0.020599	-0.34378	0.007477	0.27313	0.6694	0.10544	0.20889	0.039825	0.026703	-0.13626	0.089111	-0.5304	-0.24857	-0.005035	0.000763
42.549	0.001984	-0.069122	-0.19241	0.037842	-0.000763	0.011597	0.027618	0.018768	0.035706	0.023041	-0.005035	0.006866	-0.022888	-0.19745	0.24155	1.1273	0.018311	0.008087	0.18494	-0.060272	0.18784	0.83221	0.17532	0.17807	0.00885	0.015106	-0.069427	0.017242	0.72235	-0.34973	-0.007324	-0.003357
42.55	0.001678	-0.16205	-0.20065	0.006866	0	0.018616	-0.10315	0.025024	0.037537	0.021667	-0.086212	0.001373	0.034332	-0.10391	0.090485	0.90668	0.041504	0.10407	0.42893	-0.033875	0.080719	0.5838	0.19455	0.037994	-0.00885	-0.000305	0.13138	-0.045013	-1.1929	-0.21713	0.00061	0.000763
42.551	-0.003662	-0.26688	-0.2034	-0.007019	0.001068	0.031433	-0.13245	0.017853	0.043335	0.00473	-0.12299	0.004425	0.030823	-0.021667	0.4216	0.66818	0.029907	0.067291	0.92834	-0.064697	-0.059967	0.52673	0.21622	0.084076	-0.064697	0.001984	0.2243	-0.032959	-3.0606	-0.18417	-0.004883	-0.002289
42.552	-0.007324	-0.38162	-0.19943	-0.001984	0.004425	0.032349	-0.2002	0.009155	0.042725	0.010223	-0.13596	0.002747	-0.007629	0.024719	0.23453	0.48111	0.014954	0.096893	0.1445	0.010986	-0.16251	0.31921	0.29434	0.09613	-0.081635	0.017853	0.046234	-0.041656	-2.2942	-0.27954	-0.002441	0.001984
42.553	-0.009613	-0.4335	-0.18173	0.008545	-0.002594	0.06012	-0.10437	0.005646	0.038757	0.03952	-0.043488	-0.005646	-0.05249	-0.00351	-0.27252	0.39291	0.011749	0.1413	-0.33768	-0.020294	-0.089722	0.013275	0.32135	0.04715	-0.044861	0.012512	-0.3392	-0.043945	0.15457	-0.11902	0.002136	0.000153
42.554	-0.010376	-0.54413	-0.20264	0.002899	0.00412	0.058746	-0.031433	0.009766	0.011749	0.035706	0.074005	0.000458	-0.068359	-0.031128	-0.54886	0.44418	0.016327	0.18356	-0.16998	-0.022888	-0.11002	-0.090942	0.067749	-0.1033	-0.026398	0.002747	-0.51788	-0.042114	1.1169	-0.13947	0.000763	-0.00824
42.555	-0.003662	-0.62485	-0.20462	0.001678	-0.000153	0.050812	-0.061951	0.015717	-0.009766	0.031128	-0.048828	-0.005646	-0.058136	0.000763	0.12619	0.49347	0.034027	0.28122	-0.1149	-0.004272	0.1413	-0.15595	-0.063019	-0.17746	0	0.012207	-0.32745	-0.024567	0.60547	-0.17181	-0.004578	-0.002136
42.556	-0.005646	-0.64041	-0.17716	0.001984	-0.000458	0.058899	-0.082397	0.024872	-0.009766	0.031738	-0.095825	-0.005798	-0.070648	0.15808	-0.013733	0.51758	0.072784	0.37247	-0.008545	-0.038605	0.14877	-0.27298	-0.19775	-0.21286	-0.067596	0.022583	-0.024567	-0.028381	-0.24887	-0.15457	0.001373	-0.002899
42.557	-0.005798	-0.65964	-0.16357	0.010223	0.006866	0.058136	-0.10651	0.032959	-0.014343	0.029449	-0.15442	-0.009918	-0.010071	0.2446	0.04715	0.52246	0.093994	0.39551	0.04425	0.002136	0.032959	-0.38269	-0.21271	-0.21484	-0.10437	-0.007782	-0.19134	-0.016785	0.54138	0.069885	0.001984	-0.011292
42.558	0.00412	-0.6517	-0.1532	0.019531	0.004425	0.047913	-0.067596	0.030518	-0.005341	0.028687	-0.039978	-0.008698	-0.015259	0.1799	-0.20203	0.46753	0.016937	0.33524	-0.1355	0.039368	-0.009003	-0.29877	-0.14786	-0.27588	-0.064392	-0.022888	-0.16724	-0.088043	0.32745	0.11856	-0.005341	-0.00885
42.559	0.00061	-0.68207	-0.20767	-0.016479	0.005035	0.037079	-0.090485	0.028992	-0.002289	0.041809	-0.024872	-0.012817	-0.002594	0.019073	-0.25375	0.42145	-0.002289	0.22827	-0.020142	0.012207	-0.12329	-0.09552	0.071869	-0.3862	-0.057831	-0.013123	-0.10132	-0.043182	0.95474	-0.025024	0.005493	-0.005798
42.56	-0.003357	-0.68817	-0.26016	-0.003204	0.000458	0.057678	0.009766	0.031433	0.007935	0.028381	-0.033569	-0.012054	0.025177	-0.058594	-0.20584	0.36484	0.018158	0.12222	-0.61966	0.00946	-0.18082	0.24078	0.17456	-0.23148	-0.072937	-0.027771	0.079193	-0.056305	0.38162	0.025787	0.000153	-0.002899
42.561	0.001831	-0.62393	-0.2742	-0.013428	0.00351	0.059967	0.085144	0.036926	-0.00946	0.006409	0.17014	-0.007477	0.029755	-0.063171	-0.16007	0.31342	0.02533	-0.035248	-0.94208	-0.013428	-0.20371	0.52002	0.13626	-0.042572	-0.011749	-0.023193	0.13351	-0.052185	0.34164	-0.028229	-0.007019	-0.010223
42.562	-0.003662	-0.57083	-0.23819	0.040894	-0.005493	0.060425	0.024872	0.007477	0.018463	0.003815	0.18158	-0.001526	0.040131	-0.071564	-0.10712	0.2742	0.007935	-0.11871	-0.74631	-0.030975	0.10788	0.36407	0.093384	-0.061951	-0.044403	-0.062103	0.064392	0.041199	-0.34332	-0.063934	0.00061	-0.007782
42.563	0.010071	-0.56503	-0.2153	0.018616	-0.001221	0.041351	-0.12695	0.005798	0.034943	0.054016	0.14221	0.004578	-0.050049	-0.053711	0.077972	0.21744	0.008545	-0.12482	-0.68283	-0.046082	0.18982	0.18982	0.17777	-0.071106	-0.010071	-0.083466	0.039825	0.001984	-0.58319	-0.10254	0.004883	-0.006256
42.564	0.00061	-0.48966	-0.20508	0.006866	-0.016785	0.041504	-0.093842	-0.008392	0.060272	0.062866	0.16617	-0.002899	-0.10239	-0.010834	0.51132	0.1506	0.003204	-0.039825	-0.53741	-0.049591	0.085144	0.031281	0.20844	-0.040283	0.058136	-0.24384	0.076294	-0.0177	-0.055389	-0.10117	0.004425	0.000458
42.565	0.005951	-0.43182	-0.17838	0.002441	0.002899	0.029602	0.02533	-0.016022	0.077667	0.033569	0.28671	0.003204	-0.014648	0.036469	0.12955	0.11856	0.009918	0.000458	-0.32028	-0.071869	-0.0354	-0.039368	0.28809	0.028381	0.10147	-0.23911	0.032349	-0.056915	0.22125	-0.088348	-0.001526	-0.001678
42.566	0.006866	-0.439	-0.17059	-0.003052	0.001373	0.021973	0.007782	-0.022583	0.060883	-0.005493	0.24216	-0.002136	0.10834	0.058136	1.1766	0.079193	0.013123	-0.048828	0.075073	-0.048523	-0.19119	-0.048981	0.30807	0.053864	0.11429	-0.23987	-0.020447	-0.055084	0.12726	-0.13229	-0.000458	0.021362
42.567	-0.001373	-0.43488	-0.18936	0.0177	0.005951	0.0354	0.02182	-0.011749	0.028687	0.001373	-0.037689	-0.001678	0.11627	0.075836	0.51727	0.063019	0.018616	0.026855	0.53604	-0.006104	-0.121	-0.075378	0.35187	0.112	0.062408	-0.2243	-0.034027	-0.058746	-0.20905	-0.019684	-0.006256	0.021667
42.568	0.007324	-0.44022	-0.18738	0.015411	0.009918	0.019684	-0.061493	-0.004425	0.016327	0.010681	-0.35156	0.002136	0.13062	0.17212	-0.46448	0.028229	0.001221	-0.028992	0.18601	0.027313	0.068665	-0.041504	0.14465	-0.003967	0.027161	0.030365	-0.03418	-0.07309	-0.68512	-0.045319	-0.009766	0.019379
42.569	0.001221	-0.40848	-0.18662	0.016785	0.00473	0.000763	-0.045166	-0.000458	0.027313	0.024109	-0.33951	0.000763	0.076599	0.23575	-0.8873	-0.014343	0.000916	0.059357	0.072327	0.014038	0.099335	0.11307	-0.005493	-0.11063	0.061188	0.13168	-0.071564	-0.24368	-0.67337	-0.62515	0.002289	0.013733
42.57	0.003052	-0.42282	-0.16403	0.007172	0.002594	0.00061	0.001984	-0.003052	0.03006	0.018768	-0.11643	-0.000305	0.029297	0.24277	-0.93704	-0.029297	0.014801	0.09491	-0.17075	0.035095	-0.005646	0.13825	-0.12253	-0.21286	0.054474	0.24139	-0.081024	0.11429	-0.35111	-0.85953	0.003357	0.00885
42.571	0.006256	-0.44144	-0.17288	-0.010223	0.007477	0.009003	-0.006104	-0.008545	0.017548	0.034637	0.0914	0.011597	-0.033417	0.19943	0.55542	-0.081482	0.03006	0.13077	-0.17502	0.055695	-0.071869	0.030212	-0.11368	-0.28153	0.027313	0.20157	-0.003357	0.2182	0.091553	-0.18539	-0.008698	0.011444
